<svg xmlns="http://www.w3.org/2000/svg" width="37.32" height="75.82" viewBox="0 0 37.32 75.82">
  <metadata><?xpacket begin="﻿" id="W5M0MpCehiHzreSzNTczkc9d"?>
<x:xmpmeta xmlns:x="adobe:ns:meta/" x:xmptk="Adobe XMP Core 5.6-c138 79.159824, 2016/09/14-01:09:01        ">
   <rdf:RDF xmlns:rdf="http://www.w3.org/1999/02/22-rdf-syntax-ns#">
      <rdf:Description rdf:about=""/>
   </rdf:RDF>
</x:xmpmeta>
                                                                                                    
                                                                                                    
                                                                                                    
                                                                                                    
                                                                                                    
                                                                                                    
                                                                                                    
                                                                                                    
                                                                                                    
                                                                                                    
                                                                                                    
                                                                                                    
                                                                                                    
                                                                                                    
                                                                                                    
                                                                                                    
                                                                                                    
                                                                                                    
                                                                                                    
                                                                                                    
                           
<?xpacket end="w"?></metadata>
<defs>
    <style>
      .cls-1 {
        fill: #fff;
        fill-rule: evenodd;
      }
    </style>
  </defs>
  <path id="h" class="cls-1" d="M1264.86,2071.14a26.758,26.758,0,0,0-11.57,2.54v10.25a96.4,96.4,0,0,0-6.18,16.19l1.2,13.22,1.82,1.97,0.43,19.53q0,6.735,1.2,9.41a4.214,4.214,0,0,0,4.17,2.68q2.535,0,3.83-2.81c0.86-1.86,1.29-4.65,1.29-8.35l0.19-17.25,0.41-1.73a5.023,5.023,0,0,0,1.74,1.8,4.722,4.722,0,0,0,2.42.6,4.637,4.637,0,0,0,3.1-1.05,6.131,6.131,0,0,0,1.82-3.17,6.6,6.6,0,0,0,2.35.53,4.812,4.812,0,0,0,3.61-1.35,7,7,0,0,0,1.7-4.04c0.35,0.02.61,0.02,0.77,0.02q5.175,0,5.17-7.14l-0.09-1.67-0.77-1.77a18.767,18.767,0,0,0,.96-5.66,26.62,26.62,0,0,0-.24-2.87,35.124,35.124,0,0,0-8.43-10.73v-6.85a27.723,27.723,0,0,0-10.9-2.3h0Zm-7.31,52.12a15.591,15.591,0,0,0,1.2-1.15l-0.05,10.88a40.464,40.464,0,0,1-.69,8.69c-0.46,1.93-1.14,2.9-2.04,2.9q-3.06,0-3.06-9.34l-0.43-17.54Zm15.72-41.73a35.18,35.18,0,0,1,8.81,9.87,12.078,12.078,0,0,1,.19,1.68,31.317,31.317,0,0,1-.33,3.16l-2.54-5.99a13.357,13.357,0,0,0-5.08,3.88l-1.33-2.97c-2.98,1.76-4.81,3.69-5.47,5.8l-1.44-3.35q-6.375,3.255-6.37,8.76a9.156,9.156,0,0,0,.34,2.45,11.218,11.218,0,0,0,1.05,2.54l-0.05,4.34a20.924,20.924,0,0,0-3.11-5.25,17.29,17.29,0,0,0,2.06-8.2l-0.1-1.1-2.35-.09,0.05,0.81a17.981,17.981,0,0,1-2.49,9.05q4.26,4.065,4.26,8.17a7,7,0,0,1-1.86,4.77l-6.9-7.43-1.06-12.16q1.2-4.125,6.09-16.29v-8.72a25.081,25.081,0,0,1,8.93-1.68,27.389,27.389,0,0,1,8.7,1.49v6.46Zm-4.46,24.48,0.05,5.06a8.995,8.995,0,0,1-.79,4.25,2.522,2.522,0,0,1-2.32,1.43,1.8,1.8,0,0,1-1.66-.98,6.216,6.216,0,0,1-.55-2.93v-6.15a9.982,9.982,0,0,1-1.11-2.18,6.47,6.47,0,0,1-.37-2.14,5.962,5.962,0,0,1,3.06-5.46Zm7.22-2.06,0.11,4.34a6.6,6.6,0,0,1-.76,3.54,2.532,2.532,0,0,1-2.26,1.18,3.9,3.9,0,0,1-2.01-.73l0.05-7.03-2.2-4.98a7.483,7.483,0,0,1,3.04-5.61Zm5.91-2.49,0.05,1.87q0,4.455-3.6,4.46v-4.65l-2.87-6.42a11.729,11.729,0,0,1,2.73-3.11Z" transform="translate(-1247.12 -2071.12)"/>
</svg>
